<svg xmlns="http://www.w3.org/2000/svg" viewBox="0 0 4417.04 470.39"><defs><style>.cls-1{fill:#fdab00;}.cls-2{fill:#946400;}</style></defs><title>CW Logo-yellow full</title><g id="Layer_2" data-name="Layer 2"><g id="Layer_1-2" data-name="Layer 1"><circle class="cls-1" cx="261.45" cy="66.96" r="66.96"/><path class="cls-1" d="M159.44,149.86h0A159.43,159.43,0,0,1,318.87,309.29V468.73H159.44A159.44,159.44,0,0,1,0,309.29H0A159.43,159.43,0,0,1,159.44,149.86Z"/><path class="cls-1" d="M363.48,149.86h0A159.43,159.43,0,0,0,204,309.29V468.73H363.48A159.43,159.43,0,0,0,522.91,309.29h0A159.43,159.43,0,0,0,363.48,149.86Z"/><path class="cls-1" d="M318.85,309.32V468.73H204V309.32a158.9,158.9,0,0,1,57.47-122.51A159.1,159.1,0,0,1,318.85,309.32Z"/><path class="cls-2" d="M318.85,309.32V468.73H204V309.32a158.9,158.9,0,0,1,57.47-122.51A159.1,159.1,0,0,1,318.85,309.32Z"/><path class="cls-1" d="M723.15,247.86a127.23,127.23,0,0,1,50.3-51.72Q806,177.62,848.4,177.61q53.77,0,90.43,28.71t47.25,78h-86q-7.74-16.29-21.38-24.84t-31.57-8.55q-27.7,0-44.2,19.75t-16.49,52.73q0,33.39,16.49,53.15t44.2,19.74q17.91,0,31.57-8.55t21.38-24.83h86q-10.61,49.26-47.25,78T848.4,469.58q-42.37,0-74.95-18.53a127.14,127.14,0,0,1-50.3-51.71q-17.73-33.19-17.72-75.95Q705.43,281,723.15,247.86Z"/><path class="cls-1" d="M1128.24,451.46a141.06,141.06,0,0,1-53.56-52.53q-19.77-33.58-19.76-75.94t19.76-76a139.55,139.55,0,0,1,53.56-52.33Q1162.05,176,1202.38,176q40.72,0,74.34,18.73A138.56,138.56,0,0,1,1329.87,247q19.56,33.6,19.55,76t-19.55,75.94a139.63,139.63,0,0,1-53.36,52.53q-33.81,18.94-74.13,18.93T1128.24,451.46Zm122.4-75.13q17.73-19.95,17.72-53.34,0-34.22-17.72-54t-48.26-19.75q-31,0-48.48,19.75t-17.51,54q0,33.81,17.51,53.55t48.48,19.74Q1232.92,396.28,1250.64,376.33Z"/><path class="cls-1" d="M1830.48,180.46,1760,467.55h-98.17l-39.51-175.92L1582,467.55h-98.16l-69.66-287.09h86.36l33.4,196.27,45.21-196.27h87.58l44,194.65,33.4-194.65Z"/><path class="cls-1" d="M2050.44,467.55l-57-105.88h-8.55V467.55H1905V180.46h125.86q34.62,0,58.66,12t36.25,33q12.23,21,12.23,47,0,29.33-16.09,51.51t-47,31.56l64.77,112ZM1984.86,307.1h39.51q16.29,0,24.44-7.74T2057,277q0-13.85-8.35-21.79t-24.23-7.93h-39.51Z"/><path class="cls-1" d="M2476.1,180.46l-101,195.87v91.22h-80.24V376.33l-101-195.87h91.24l50.51,110.76,50.51-110.76Z"/><path class="cls-1" d="M2945.76,180.46l-70.47,287.09h-98.17l-39.51-175.92-40.33,175.92h-98.17l-69.65-287.09h86.35l33.4,196.27,45.22-196.27H2782l44,194.65,33.4-194.65Z"/><path class="cls-1" d="M3100.14,244.39v46.83h91.65V351.9h-91.65v51.72H3204v63.93H3020.3V180.46H3204v63.93Z"/><path class="cls-1" d="M3465.92,420.72H3364.08l-15.48,46.83h-83.91l104.69-287.09h92.06l104.27,287.09H3481.4Zm-20-61.09-31-92.84-30.55,92.84Z"/><path class="cls-1" d="M3712.35,406.46h89.21v61.09h-169V180.46h79.84Z"/><path class="cls-1" d="M4089.54,180.46V244H4013V467.55h-79.83V244h-75.77V180.46Z"/><path class="cls-1" d="M4417,180.46V467.55H4337.2V352.3h-97.35V467.55H4160V180.46h79.84V288.37h97.35V180.46Z"/></g></g></svg>