<svg xmlns="http://www.w3.org/2000/svg" viewBox="0 0 4349.81 463.23"><defs><style>.cls-1{fill:#00551e;}.cls-2{fill:#033800;}.cls-3{fill:#022100;}</style></defs><title>CW Logo-green full</title><g id="Layer_2" data-name="Layer 2"><g id="Layer_1-2" data-name="Layer 1"><circle class="cls-1" cx="257.47" cy="65.94" r="65.94"/><path class="cls-1" d="M157,147.58h0a157,157,0,0,1,157,157v157H157a157,157,0,0,1-157-157H0A157,157,0,0,1,157,147.58Z"/><path class="cls-1" d="M358,147.58h0a157,157,0,0,0-157,157v157H358a157,157,0,0,0,157-157h0A157,157,0,0,0,358,147.58Z"/><path class="cls-2" d="M314,304.61v157H200.94v-157A156.46,156.46,0,0,1,257.53,184,156.67,156.67,0,0,1,314,304.61Z"/><path class="cls-3" d="M314,304.61v157H200.94v-157A156.46,156.46,0,0,1,257.53,184,156.67,156.67,0,0,1,314,304.61Z"/><path class="cls-1" d="M712.14,244.09a125.32,125.32,0,0,1,49.54-50.94q32.09-18.24,73.81-18.24,52.95,0,89,28.27T971.07,280H886.43q-7.62-16-21.06-24.46t-31.08-8.42q-27.28,0-43.53,19.45t-16.24,51.93q0,32.88,16.24,52.33t43.53,19.45q17.64,0,31.08-8.42t21.06-24.46h84.64q-10.44,48.53-46.53,76.79t-89,28.28q-41.73,0-73.81-18.25a125.24,125.24,0,0,1-49.54-50.93q-17.45-32.68-17.45-74.79Q694.69,276.77,712.14,244.09Z"/><path class="cls-1" d="M1111.07,444.59a138.92,138.92,0,0,1-52.75-51.73q-19.46-33.09-19.45-74.79t19.45-74.79a137.47,137.47,0,0,1,52.75-51.53q33.29-18.45,73-18.44,40.11,0,73.21,18.44a136.41,136.41,0,0,1,52.34,51.53q19.26,33.07,19.26,74.79t-19.26,74.79a137.42,137.42,0,0,1-52.55,51.73q-33.28,18.65-73,18.64T1111.07,444.59Zm120.54-74q17.46-19.64,17.45-52.53,0-33.69-17.45-53.13t-47.53-19.45q-30.49,0-47.74,19.45t-17.25,53.13q0,33.3,17.25,52.73t47.74,19.45Q1214.17,390.25,1231.61,370.6Z"/><path class="cls-1" d="M1802.63,177.71l-69.4,282.72h-96.68l-38.91-173.24-39.71,173.24h-96.68l-68.59-282.72h85L1510.59,371l44.53-193.29h86.25l43.32,191.69,32.89-191.69Z"/><path class="cls-1" d="M2019.23,460.43l-56.16-104.26h-8.42V460.43H1876V177.71h124q34.1,0,57.76,11.83t35.7,32.49q12,20.66,12,46.31,0,28.88-15.85,50.73t-46.33,31.08l63.78,110.28Zm-64.58-158h38.91q16,0,24.07-7.62t8-22.06q0-13.62-8.22-21.45t-23.87-7.82h-38.91Z"/><path class="cls-1" d="M2438.42,177.71,2338.94,370.6v89.83h-79V370.6l-99.49-192.89h89.86L2300,286.79l49.74-109.08Z"/><path class="cls-1" d="M2900.93,177.71l-69.4,282.72h-96.67l-38.92-173.24-39.71,173.24h-96.67L2491,177.71h85L2608.9,371l44.52-193.29h86.25L2783,369.4l32.89-191.69Z"/><path class="cls-1" d="M3053,240.67v46.12h90.25v59.75H3053v50.93h102.29v63H2974.33V177.71h180.92v63Z"/><path class="cls-1" d="M3413.17,414.31H3312.89l-15.25,46.12H3215L3318.1,177.71h90.66l102.69,282.72h-83Zm-19.66-60.15L3363,262.73l-30.09,91.43Z"/><path class="cls-1" d="M3655.86,400.28h87.84v60.15H3577.23V177.71h78.63Z"/><path class="cls-1" d="M4027.3,177.71v62.56h-75.41V460.43h-78.62V240.27h-74.61V177.71Z"/><path class="cls-1" d="M4349.81,177.71V460.43h-78.62V346.94h-95.87V460.43H4096.7V177.71h78.62V284h95.87V177.71Z"/></g></g></svg>